<mxfile host="app.diagrams.net" modified="2023-04-26T14:04:48.961Z" agent="Mozilla/5.0 (Windows NT 10.0; Win64; x64) AppleWebKit/537.36 (KHTML, like Gecko) Chrome/112.0.0.0 Safari/537.36" etag="XZRQ1TuOXXcNUzFfUnUf" version="21.2.2" type="github">
  <diagram name="Page-1" id="c7488fd3-1785-93aa-aadb-54a6760d102a">
    <mxGraphModel dx="1034" dy="708" grid="1" gridSize="10" guides="1" tooltips="1" connect="1" arrows="1" fold="1" page="1" pageScale="1" pageWidth="2336" pageHeight="1654" background="none" math="0" shadow="0">
      <root>
        <mxCell id="0" />
        <mxCell id="1" parent="0" />
        <mxCell id="2b4e8129b02d487f-1" value="Validaciones RIPS - Reserva Técnica" style="swimlane;html=1;childLayout=stackLayout;horizontal=1;startSize=20;horizontalStack=0;rounded=0;shadow=0;labelBackgroundColor=none;strokeWidth=1;fontFamily=Verdana;fontSize=8;align=center;" parent="1" vertex="1">
          <mxGeometry x="30" y="40" width="2280" height="1600" as="geometry" />
        </mxCell>
        <mxCell id="2b4e8129b02d487f-2" value="Modulo ERIP - OASIS" style="swimlane;html=1;startSize=20;horizontal=0;dashed=1;fillColor=#e1d5e7;strokeColor=#9673a6;" parent="2b4e8129b02d487f-1" vertex="1">
          <mxGeometry y="20" width="2280" height="1580" as="geometry" />
        </mxCell>
        <mxCell id="vUZzg_QwLZEA6atEJ-6O-3" style="edgeStyle=orthogonalEdgeStyle;rounded=0;orthogonalLoop=1;jettySize=auto;html=1;dashed=1;entryX=0;entryY=0.5;entryDx=0;entryDy=0;entryPerimeter=0;" parent="2b4e8129b02d487f-2" source="vUZzg_QwLZEA6atEJ-6O-2" target="q4aeZ8HjHM6SwuqYir7_-1" edge="1">
          <mxGeometry relative="1" as="geometry">
            <mxPoint x="140" y="610" as="targetPoint" />
          </mxGeometry>
        </mxCell>
        <mxCell id="vUZzg_QwLZEA6atEJ-6O-2" value="" style="strokeWidth=2;html=1;shape=mxgraph.flowchart.start_2;whiteSpace=wrap;fillColor=#f8cecc;strokeColor=#b85450;" parent="2b4e8129b02d487f-2" vertex="1">
          <mxGeometry x="50" y="590" width="40" height="40" as="geometry" />
        </mxCell>
        <mxCell id="q4aeZ8HjHM6SwuqYir7_-8" style="edgeStyle=orthogonalEdgeStyle;rounded=0;orthogonalLoop=1;jettySize=auto;html=1;dashed=1;" parent="2b4e8129b02d487f-2" source="q4aeZ8HjHM6SwuqYir7_-1" target="q4aeZ8HjHM6SwuqYir7_-11" edge="1">
          <mxGeometry relative="1" as="geometry">
            <mxPoint x="280" y="610" as="targetPoint" />
          </mxGeometry>
        </mxCell>
        <UserObject label="&lt;font style=&quot;font-size: 9px;&quot;&gt;Recepción de&amp;nbsp; archivos RIPS&lt;/font&gt;" link="https://app.diagrams.net/#Hkevinjporto%2FDiagramas-de-procesos%2Fmain%2FDiagrama_recepci%C3%B3n_RIPS" id="q4aeZ8HjHM6SwuqYir7_-1">
          <mxCell style="points=[[0.25,0,0],[0.5,0,0],[0.75,0,0],[1,0.25,0],[1,0.5,0],[1,0.75,0],[0.75,1,0],[0.5,1,0],[0.25,1,0],[0,0.75,0],[0,0.5,0],[0,0.25,0]];shape=mxgraph.bpmn.task;whiteSpace=wrap;rectStyle=rounded;size=10;html=1;bpmnShapeType=call;isLoopSub=1;fillColor=#d5e8d4;strokeColor=#82b366;" parent="2b4e8129b02d487f-2" vertex="1">
            <mxGeometry x="130" y="580" width="110" height="60" as="geometry" />
          </mxCell>
        </UserObject>
        <mxCell id="q4aeZ8HjHM6SwuqYir7_-10" value="Validar archivos RIPS" style="points=[[0.25,0,0],[0.5,0,0],[0.75,0,0],[1,0.25,0],[1,0.5,0],[1,0.75,0],[0.75,1,0],[0.5,1,0],[0.25,1,0],[0,0.75,0],[0,0.5,0],[0,0.25,0]];shape=mxgraph.bpmn.task;whiteSpace=wrap;rectStyle=rounded;size=10;html=1;taskMarker=abstract;fontSize=9;fillColor=#fff2cc;strokeColor=#d6b656;" parent="2b4e8129b02d487f-2" vertex="1">
          <mxGeometry x="420" y="580" width="90" height="60" as="geometry" />
        </mxCell>
        <mxCell id="q4aeZ8HjHM6SwuqYir7_-14" style="edgeStyle=orthogonalEdgeStyle;rounded=0;orthogonalLoop=1;jettySize=auto;html=1;entryX=0;entryY=0.5;entryDx=0;entryDy=0;entryPerimeter=0;dashed=1;" parent="2b4e8129b02d487f-2" source="q4aeZ8HjHM6SwuqYir7_-11" target="q4aeZ8HjHM6SwuqYir7_-10" edge="1">
          <mxGeometry relative="1" as="geometry" />
        </mxCell>
        <mxCell id="q4aeZ8HjHM6SwuqYir7_-11" value="&lt;font style=&quot;font-size: 9px;&quot;&gt;Cargue de archivos RIPS en OASIS modulo ERIP&lt;/font&gt;" style="points=[[0.25,0,0],[0.5,0,0],[0.75,0,0],[1,0.25,0],[1,0.5,0],[1,0.75,0],[0.75,1,0],[0.5,1,0],[0.25,1,0],[0,0.75,0],[0,0.5,0],[0,0.25,0]];shape=mxgraph.bpmn.task;whiteSpace=wrap;rectStyle=rounded;size=10;html=1;container=1;expand=0;collapsible=0;taskMarker=manual;fillColor=#fff2cc;strokeColor=#d6b656;" parent="2b4e8129b02d487f-2" vertex="1">
          <mxGeometry x="280" y="580" width="110" height="60" as="geometry" />
        </mxCell>
        <mxCell id="q4aeZ8HjHM6SwuqYir7_-13" value="&lt;font style=&quot;font-size: 9px;&quot;&gt;Archivos RIPS&lt;/font&gt;" style="edgeStyle=orthogonalEdgeStyle;rounded=0;orthogonalLoop=1;jettySize=auto;html=1;dashed=1;" parent="2b4e8129b02d487f-2" source="q4aeZ8HjHM6SwuqYir7_-12" target="q4aeZ8HjHM6SwuqYir7_-11" edge="1">
          <mxGeometry relative="1" as="geometry" />
        </mxCell>
        <mxCell id="q4aeZ8HjHM6SwuqYir7_-12" value="" style="shape=mxgraph.bpmn.data;labelPosition=center;verticalLabelPosition=bottom;align=center;verticalAlign=top;whiteSpace=wrap;size=15;html=1;bpmnTransferType=input;fontSize=9;fillColor=#bac8d3;strokeColor=#23445d;" parent="2b4e8129b02d487f-2" vertex="1">
          <mxGeometry x="315" y="430" width="40" height="50" as="geometry" />
        </mxCell>
        <mxCell id="q4aeZ8HjHM6SwuqYir7_-17" style="edgeStyle=orthogonalEdgeStyle;rounded=0;orthogonalLoop=1;jettySize=auto;html=1;dashed=1;entryX=0;entryY=0.5;entryDx=0;entryDy=0;entryPerimeter=0;exitX=1;exitY=0.5;exitDx=0;exitDy=0;exitPerimeter=0;" parent="2b4e8129b02d487f-2" source="q4aeZ8HjHM6SwuqYir7_-16" target="q4aeZ8HjHM6SwuqYir7_-18" edge="1">
          <mxGeometry relative="1" as="geometry">
            <mxPoint x="820.11" y="300" as="targetPoint" />
            <mxPoint x="750.0033333333334" y="300.0999999999999" as="sourcePoint" />
          </mxGeometry>
        </mxCell>
        <mxCell id="q4aeZ8HjHM6SwuqYir7_-37" style="edgeStyle=orthogonalEdgeStyle;rounded=0;orthogonalLoop=1;jettySize=auto;html=1;entryX=0;entryY=0.5;entryDx=0;entryDy=0;entryPerimeter=0;dashed=1;exitX=1;exitY=0.5;exitDx=0;exitDy=0;exitPerimeter=0;" parent="2b4e8129b02d487f-2" source="q4aeZ8HjHM6SwuqYir7_-16" target="q4aeZ8HjHM6SwuqYir7_-36" edge="1">
          <mxGeometry relative="1" as="geometry">
            <mxPoint x="750.0033333333334" y="300.0999999999999" as="sourcePoint" />
          </mxGeometry>
        </mxCell>
        <mxCell id="q4aeZ8HjHM6SwuqYir7_-39" style="edgeStyle=orthogonalEdgeStyle;rounded=0;orthogonalLoop=1;jettySize=auto;html=1;entryX=0;entryY=0.5;entryDx=0;entryDy=0;entryPerimeter=0;dashed=1;exitX=1;exitY=0.5;exitDx=0;exitDy=0;exitPerimeter=0;" parent="2b4e8129b02d487f-2" source="q4aeZ8HjHM6SwuqYir7_-16" target="q4aeZ8HjHM6SwuqYir7_-38" edge="1">
          <mxGeometry relative="1" as="geometry">
            <mxPoint x="750.0033333333334" y="300.0999999999999" as="sourcePoint" />
            <Array as="points">
              <mxPoint x="760" y="610" />
              <mxPoint x="760" y="1170" />
            </Array>
          </mxGeometry>
        </mxCell>
        <mxCell id="q4aeZ8HjHM6SwuqYir7_-41" style="edgeStyle=orthogonalEdgeStyle;rounded=0;orthogonalLoop=1;jettySize=auto;html=1;entryX=0;entryY=0.5;entryDx=0;entryDy=0;entryPerimeter=0;dashed=1;exitX=1;exitY=0.5;exitDx=0;exitDy=0;exitPerimeter=0;" parent="2b4e8129b02d487f-2" source="q4aeZ8HjHM6SwuqYir7_-16" target="q4aeZ8HjHM6SwuqYir7_-40" edge="1">
          <mxGeometry relative="1" as="geometry">
            <mxPoint x="750.0033333333334" y="300.0999999999999" as="sourcePoint" />
          </mxGeometry>
        </mxCell>
        <mxCell id="0h3Z5OLf3pgDf_X1rs7T-4" style="edgeStyle=orthogonalEdgeStyle;rounded=0;orthogonalLoop=1;jettySize=auto;html=1;entryX=0;entryY=0.5;entryDx=0;entryDy=0;entryPerimeter=0;dashed=1;" parent="2b4e8129b02d487f-2" source="q4aeZ8HjHM6SwuqYir7_-16" target="0h3Z5OLf3pgDf_X1rs7T-3" edge="1">
          <mxGeometry relative="1" as="geometry">
            <Array as="points">
              <mxPoint x="760" y="610" />
              <mxPoint x="760" y="1450" />
            </Array>
          </mxGeometry>
        </mxCell>
        <mxCell id="FH4czwfDK9NghrXHaHDE-2" style="edgeStyle=orthogonalEdgeStyle;rounded=0;orthogonalLoop=1;jettySize=auto;html=1;entryX=0;entryY=0.5;entryDx=0;entryDy=0;entryPerimeter=0;dashed=1;" parent="2b4e8129b02d487f-2" source="q4aeZ8HjHM6SwuqYir7_-16" target="FH4czwfDK9NghrXHaHDE-1" edge="1">
          <mxGeometry relative="1" as="geometry" />
        </mxCell>
        <mxCell id="q4aeZ8HjHM6SwuqYir7_-16" value="" style="points=[[0.25,0.25,0],[0.5,0,0],[0.75,0.25,0],[1,0.5,0],[0.75,0.75,0],[0.5,1,0],[0.25,0.75,0],[0,0.5,0]];shape=mxgraph.bpmn.gateway2;html=1;verticalLabelPosition=bottom;labelBackgroundColor=#ffffff;verticalAlign=top;align=center;perimeter=rhombusPerimeter;outlineConnect=0;outline=none;symbol=none;gwType=parallel;fillColor=#ffe6cc;strokeColor=#d79b00;" parent="2b4e8129b02d487f-2" vertex="1">
          <mxGeometry x="690" y="591.25" width="40" height="37.5" as="geometry" />
        </mxCell>
        <mxCell id="q4aeZ8HjHM6SwuqYir7_-15" style="edgeStyle=orthogonalEdgeStyle;rounded=0;orthogonalLoop=1;jettySize=auto;html=1;dashed=1;entryX=0;entryY=0.5;entryDx=0;entryDy=0;entryPerimeter=0;" parent="2b4e8129b02d487f-2" source="q4aeZ8HjHM6SwuqYir7_-10" target="q4aeZ8HjHM6SwuqYir7_-64" edge="1">
          <mxGeometry relative="1" as="geometry">
            <mxPoint x="560" y="610" as="targetPoint" />
            <Array as="points" />
          </mxGeometry>
        </mxCell>
        <mxCell id="q4aeZ8HjHM6SwuqYir7_-67" style="edgeStyle=orthogonalEdgeStyle;rounded=0;orthogonalLoop=1;jettySize=auto;html=1;dashed=1;entryX=0;entryY=0.5;entryDx=0;entryDy=0;entryPerimeter=0;" parent="2b4e8129b02d487f-2" source="q4aeZ8HjHM6SwuqYir7_-18" target="q4aeZ8HjHM6SwuqYir7_-69" edge="1">
          <mxGeometry relative="1" as="geometry">
            <mxPoint x="940" y="440" as="targetPoint" />
            <Array as="points" />
          </mxGeometry>
        </mxCell>
        <mxCell id="q4aeZ8HjHM6SwuqYir7_-18" value="Verificar ID del usuario, códigos CUPS, prestador y fecha de prestación (AC, AP, AU, AH)" style="points=[[0.25,0,0],[0.5,0,0],[0.75,0,0],[1,0.25,0],[1,0.5,0],[1,0.75,0],[0.75,1,0],[0.5,1,0],[0.25,1,0],[0,0.75,0],[0,0.5,0],[0,0.25,0]];shape=mxgraph.bpmn.task;whiteSpace=wrap;rectStyle=rounded;size=10;html=1;taskMarker=abstract;fontSize=9;fillColor=#fff2cc;strokeColor=#d6b656;" parent="2b4e8129b02d487f-2" vertex="1">
          <mxGeometry x="790.11" y="440" width="119.89" height="60" as="geometry" />
        </mxCell>
        <mxCell id="q4aeZ8HjHM6SwuqYir7_-36" value="Consultar estado del afiliado en BD" style="points=[[0.25,0,0],[0.5,0,0],[0.75,0,0],[1,0.25,0],[1,0.5,0],[1,0.75,0],[0.75,1,0],[0.5,1,0],[0.25,1,0],[0,0.75,0],[0,0.5,0],[0,0.25,0]];shape=mxgraph.bpmn.task;whiteSpace=wrap;rectStyle=rounded;size=10;html=1;taskMarker=abstract;fontSize=9;fillColor=#fff2cc;strokeColor=#d6b656;" parent="2b4e8129b02d487f-2" vertex="1">
          <mxGeometry x="790.11" y="140" width="119.89" height="60" as="geometry" />
        </mxCell>
        <mxCell id="96rb111MpXqOaE1i3Asx-75" style="edgeStyle=orthogonalEdgeStyle;rounded=0;orthogonalLoop=1;jettySize=auto;html=1;entryX=0;entryY=0.5;entryDx=0;entryDy=0;entryPerimeter=0;dashed=1;" parent="2b4e8129b02d487f-2" source="q4aeZ8HjHM6SwuqYir7_-38" target="96rb111MpXqOaE1i3Asx-74" edge="1">
          <mxGeometry relative="1" as="geometry" />
        </mxCell>
        <mxCell id="q4aeZ8HjHM6SwuqYir7_-38" value="Verificar que los archivos RIPS radicados correspondan a contrato EVENTO" style="points=[[0.25,0,0],[0.5,0,0],[0.75,0,0],[1,0.25,0],[1,0.5,0],[1,0.75,0],[0.75,1,0],[0.5,1,0],[0.25,1,0],[0,0.75,0],[0,0.5,0],[0,0.25,0]];shape=mxgraph.bpmn.task;whiteSpace=wrap;rectStyle=rounded;size=10;html=1;taskMarker=abstract;fontSize=9;fillColor=#fff2cc;strokeColor=#d6b656;" parent="2b4e8129b02d487f-2" vertex="1">
          <mxGeometry x="790.11" y="1140" width="119.89" height="60" as="geometry" />
        </mxCell>
        <mxCell id="q4aeZ8HjHM6SwuqYir7_-98" style="edgeStyle=orthogonalEdgeStyle;rounded=0;orthogonalLoop=1;jettySize=auto;html=1;entryX=0;entryY=0.5;entryDx=0;entryDy=0;entryPerimeter=0;dashed=1;" parent="2b4e8129b02d487f-2" source="q4aeZ8HjHM6SwuqYir7_-40" target="q4aeZ8HjHM6SwuqYir7_-95" edge="1">
          <mxGeometry relative="1" as="geometry" />
        </mxCell>
        <mxCell id="q4aeZ8HjHM6SwuqYir7_-40" value="Validar que los servicios de los archivos RIPS sean de contrato TIPO EVENTO y ÁMBITO AMBULATORIO" style="points=[[0.25,0,0],[0.5,0,0],[0.75,0,0],[1,0.25,0],[1,0.5,0],[1,0.75,0],[0.75,1,0],[0.5,1,0],[0.25,1,0],[0,0.75,0],[0,0.5,0],[0,0.25,0]];shape=mxgraph.bpmn.task;whiteSpace=wrap;rectStyle=rounded;size=10;html=1;taskMarker=abstract;fontSize=9;fillColor=#fff2cc;strokeColor=#d6b656;" parent="2b4e8129b02d487f-2" vertex="1">
          <mxGeometry x="790.11" y="951" width="119.89" height="60" as="geometry" />
        </mxCell>
        <mxCell id="q4aeZ8HjHM6SwuqYir7_-44" value="Retirado/&lt;br&gt;fallecido" style="edgeStyle=orthogonalEdgeStyle;rounded=0;orthogonalLoop=1;jettySize=auto;html=1;entryX=0;entryY=0.5;entryDx=0;entryDy=0;entryPerimeter=0;dashed=1;" parent="2b4e8129b02d487f-2" source="q4aeZ8HjHM6SwuqYir7_-43" target="96rb111MpXqOaE1i3Asx-1" edge="1">
          <mxGeometry relative="1" as="geometry">
            <mxPoint x="1100" y="170" as="targetPoint" />
          </mxGeometry>
        </mxCell>
        <mxCell id="q4aeZ8HjHM6SwuqYir7_-45" value="Activo" style="edgeStyle=orthogonalEdgeStyle;rounded=0;orthogonalLoop=1;jettySize=auto;html=1;dashed=1;entryX=0.75;entryY=0;entryDx=0;entryDy=0;entryPerimeter=0;" parent="2b4e8129b02d487f-2" source="q4aeZ8HjHM6SwuqYir7_-43" target="q4aeZ8HjHM6SwuqYir7_-47" edge="1">
          <mxGeometry x="-0.2404" relative="1" as="geometry">
            <mxPoint x="1790" y="75" as="targetPoint" />
            <Array as="points">
              <mxPoint x="975" y="80" />
              <mxPoint x="1925" y="80" />
            </Array>
            <mxPoint as="offset" />
          </mxGeometry>
        </mxCell>
        <mxCell id="q4aeZ8HjHM6SwuqYir7_-43" value="&lt;font style=&quot;font-size: 9px;&quot;&gt;Estado del afiliado&lt;/font&gt;" style="strokeWidth=2;html=1;shape=mxgraph.flowchart.decision;whiteSpace=wrap;fillColor=#e1d5e7;strokeColor=#9673a6;" parent="2b4e8129b02d487f-2" vertex="1">
          <mxGeometry x="940.1100000000001" y="134.38" width="70" height="71.25" as="geometry" />
        </mxCell>
        <mxCell id="q4aeZ8HjHM6SwuqYir7_-42" style="edgeStyle=orthogonalEdgeStyle;rounded=0;orthogonalLoop=1;jettySize=auto;html=1;dashed=1;" parent="2b4e8129b02d487f-2" source="q4aeZ8HjHM6SwuqYir7_-36" target="q4aeZ8HjHM6SwuqYir7_-43" edge="1">
          <mxGeometry relative="1" as="geometry">
            <mxPoint x="940.1100000000001" y="170" as="targetPoint" />
          </mxGeometry>
        </mxCell>
        <mxCell id="q4aeZ8HjHM6SwuqYir7_-51" style="edgeStyle=orthogonalEdgeStyle;rounded=0;orthogonalLoop=1;jettySize=auto;html=1;dashed=1;entryX=0;entryY=0.5;entryDx=0;entryDy=0;entryPerimeter=0;exitX=1;exitY=0.5;exitDx=0;exitDy=0;exitPerimeter=0;" parent="2b4e8129b02d487f-2" source="96rb111MpXqOaE1i3Asx-1" target="q4aeZ8HjHM6SwuqYir7_-52" edge="1">
          <mxGeometry relative="1" as="geometry">
            <mxPoint x="1300.11" y="170.01" as="targetPoint" />
            <mxPoint x="1190" y="170.005" as="sourcePoint" />
          </mxGeometry>
        </mxCell>
        <mxCell id="q4aeZ8HjHM6SwuqYir7_-75" style="edgeStyle=orthogonalEdgeStyle;rounded=0;orthogonalLoop=1;jettySize=auto;html=1;dashed=1;entryX=0;entryY=0.5;entryDx=0;entryDy=0;entryPerimeter=0;" parent="2b4e8129b02d487f-2" source="q4aeZ8HjHM6SwuqYir7_-47" target="q4aeZ8HjHM6SwuqYir7_-76" edge="1">
          <mxGeometry relative="1" as="geometry">
            <mxPoint x="2180" y="659" as="targetPoint" />
          </mxGeometry>
        </mxCell>
        <mxCell id="q4aeZ8HjHM6SwuqYir7_-47" value="Continuar con el proceso de validación de RIPS" style="points=[[0.25,0,0],[0.5,0,0],[0.75,0,0],[1,0.25,0],[1,0.5,0],[1,0.75,0],[0.75,1,0],[0.5,1,0],[0.25,1,0],[0,0.75,0],[0,0.5,0],[0,0.25,0]];shape=mxgraph.bpmn.task;whiteSpace=wrap;rectStyle=rounded;size=10;html=1;taskMarker=abstract;fontSize=9;fillColor=#fff2cc;strokeColor=#d6b656;" parent="2b4e8129b02d487f-2" vertex="1">
          <mxGeometry x="1819.89" y="648" width="140" height="50" as="geometry" />
        </mxCell>
        <mxCell id="q4aeZ8HjHM6SwuqYir7_-53" style="edgeStyle=orthogonalEdgeStyle;rounded=0;orthogonalLoop=1;jettySize=auto;html=1;dashed=1;" parent="2b4e8129b02d487f-2" source="q4aeZ8HjHM6SwuqYir7_-52" target="q4aeZ8HjHM6SwuqYir7_-47" edge="1">
          <mxGeometry relative="1" as="geometry">
            <mxPoint x="2050" y="170" as="targetPoint" />
          </mxGeometry>
        </mxCell>
        <mxCell id="q4aeZ8HjHM6SwuqYir7_-55" value="&amp;lt; Retiro/&lt;br&gt;fallecimiento" style="edgeLabel;html=1;align=center;verticalAlign=middle;resizable=0;points=[];" parent="q4aeZ8HjHM6SwuqYir7_-53" vertex="1" connectable="0">
          <mxGeometry x="-0.2008" y="1" relative="1" as="geometry">
            <mxPoint as="offset" />
          </mxGeometry>
        </mxCell>
        <mxCell id="q4aeZ8HjHM6SwuqYir7_-56" style="edgeStyle=orthogonalEdgeStyle;rounded=0;orthogonalLoop=1;jettySize=auto;html=1;dashed=1;entryX=0;entryY=0.5;entryDx=0;entryDy=0;entryPerimeter=0;exitX=0.5;exitY=1;exitDx=0;exitDy=0;exitPerimeter=0;" parent="2b4e8129b02d487f-2" source="q4aeZ8HjHM6SwuqYir7_-52" target="q4aeZ8HjHM6SwuqYir7_-57" edge="1">
          <mxGeometry relative="1" as="geometry">
            <mxPoint x="1560.11" y="300" as="targetPoint" />
            <Array as="points">
              <mxPoint x="1285" y="245" />
            </Array>
          </mxGeometry>
        </mxCell>
        <mxCell id="q4aeZ8HjHM6SwuqYir7_-63" value="&amp;gt; Retiro/&lt;br&gt;fallecimiento" style="edgeLabel;html=1;align=center;verticalAlign=middle;resizable=0;points=[];" parent="q4aeZ8HjHM6SwuqYir7_-56" vertex="1" connectable="0">
          <mxGeometry x="-0.3754" y="-4" relative="1" as="geometry">
            <mxPoint x="51" y="-4" as="offset" />
          </mxGeometry>
        </mxCell>
        <mxCell id="q4aeZ8HjHM6SwuqYir7_-52" value="&lt;font style=&quot;font-size: 9px;&quot;&gt;Fecha de prestación&lt;/font&gt;" style="strokeWidth=2;html=1;shape=mxgraph.flowchart.decision;whiteSpace=wrap;fillColor=#e1d5e7;strokeColor=#9673a6;" parent="2b4e8129b02d487f-2" vertex="1">
          <mxGeometry x="1250" y="134.38" width="70" height="71.25" as="geometry" />
        </mxCell>
        <mxCell id="q4aeZ8HjHM6SwuqYir7_-58" style="edgeStyle=orthogonalEdgeStyle;rounded=0;orthogonalLoop=1;jettySize=auto;html=1;dashed=1;entryX=0;entryY=0.5;entryDx=0;entryDy=0;entryPerimeter=0;" parent="2b4e8129b02d487f-2" source="q4aeZ8HjHM6SwuqYir7_-57" target="q4aeZ8HjHM6SwuqYir7_-59" edge="1">
          <mxGeometry relative="1" as="geometry">
            <mxPoint x="1660.11" y="245" as="targetPoint" />
          </mxGeometry>
        </mxCell>
        <mxCell id="q4aeZ8HjHM6SwuqYir7_-57" value="No se radica la factura en el sistema" style="points=[[0.25,0,0],[0.5,0,0],[0.75,0,0],[1,0.25,0],[1,0.5,0],[1,0.75,0],[0.75,1,0],[0.5,1,0],[0.25,1,0],[0,0.75,0],[0,0.5,0],[0,0.25,0]];shape=mxgraph.bpmn.task;whiteSpace=wrap;rectStyle=rounded;size=10;html=1;taskMarker=abstract;fontSize=9;fillColor=#fff2cc;strokeColor=#d6b656;" parent="2b4e8129b02d487f-2" vertex="1">
          <mxGeometry x="1400" y="220" width="90" height="50" as="geometry" />
        </mxCell>
        <mxCell id="q4aeZ8HjHM6SwuqYir7_-61" style="edgeStyle=orthogonalEdgeStyle;rounded=0;orthogonalLoop=1;jettySize=auto;html=1;dashed=1;entryX=0.5;entryY=0;entryDx=0;entryDy=0;" parent="2b4e8129b02d487f-2" source="q4aeZ8HjHM6SwuqYir7_-59" target="q4aeZ8HjHM6SwuqYir7_-62" edge="1">
          <mxGeometry relative="1" as="geometry">
            <mxPoint x="1800.11" y="245" as="targetPoint" />
          </mxGeometry>
        </mxCell>
        <mxCell id="96rb111MpXqOaE1i3Asx-187" style="edgeStyle=orthogonalEdgeStyle;rounded=0;orthogonalLoop=1;jettySize=auto;html=1;entryX=0;entryY=0.5;entryDx=0;entryDy=0;entryPerimeter=0;dashed=1;" parent="2b4e8129b02d487f-2" source="q4aeZ8HjHM6SwuqYir7_-59" target="96rb111MpXqOaE1i3Asx-188" edge="1">
          <mxGeometry relative="1" as="geometry">
            <mxPoint x="1670" y="245" as="targetPoint" />
          </mxGeometry>
        </mxCell>
        <mxCell id="q4aeZ8HjHM6SwuqYir7_-59" value="Se muestra el error&amp;nbsp; en el módulo ERRE y mensaje en pantalla" style="points=[[0.25,0,0],[0.5,0,0],[0.75,0,0],[1,0.25,0],[1,0.5,0],[1,0.75,0],[0.75,1,0],[0.5,1,0],[0.25,1,0],[0,0.75,0],[0,0.5,0],[0,0.25,0]];shape=mxgraph.bpmn.task;whiteSpace=wrap;rectStyle=rounded;size=10;html=1;taskMarker=abstract;fontSize=9;fillColor=#fff2cc;strokeColor=#d6b656;" parent="2b4e8129b02d487f-2" vertex="1">
          <mxGeometry x="1530" y="220" width="90" height="50" as="geometry" />
        </mxCell>
        <mxCell id="q4aeZ8HjHM6SwuqYir7_-62" value="&lt;div style=&quot;text-align: justify;&quot;&gt;&lt;b style=&quot;font-size: 9px; background-color: initial;&quot;&gt;Mensaje:&lt;/b&gt;&lt;span style=&quot;font-size: 9px; background-color: initial;&quot;&gt; &quot;El servicio reportado en los RIPS se presto de manera posterior a la fecha de retiro o fallecimiento&quot;&lt;/span&gt;&lt;/div&gt;" style="text;html=1;strokeColor=#666666;fillColor=#f5f5f5;align=center;verticalAlign=middle;whiteSpace=wrap;rounded=0;dashed=1;fontColor=#333333;" parent="2b4e8129b02d487f-2" vertex="1">
          <mxGeometry x="1495.05" y="280" width="159.89" height="50" as="geometry" />
        </mxCell>
        <mxCell id="q4aeZ8HjHM6SwuqYir7_-66" style="edgeStyle=orthogonalEdgeStyle;rounded=0;orthogonalLoop=1;jettySize=auto;html=1;entryX=0;entryY=0.5;entryDx=0;entryDy=0;entryPerimeter=0;dashed=1;" parent="2b4e8129b02d487f-2" source="q4aeZ8HjHM6SwuqYir7_-64" target="q4aeZ8HjHM6SwuqYir7_-16" edge="1">
          <mxGeometry relative="1" as="geometry" />
        </mxCell>
        <mxCell id="q4aeZ8HjHM6SwuqYir7_-64" value="Validación por primera vez" style="points=[[0.25,0,0],[0.5,0,0],[0.75,0,0],[1,0.25,0],[1,0.5,0],[1,0.75,0],[0.75,1,0],[0.5,1,0],[0.25,1,0],[0,0.75,0],[0,0.5,0],[0,0.25,0]];shape=mxgraph.bpmn.task;whiteSpace=wrap;rectStyle=rounded;size=10;html=1;taskMarker=abstract;fontSize=9;fillColor=#fff2cc;strokeColor=#d6b656;" parent="2b4e8129b02d487f-2" vertex="1">
          <mxGeometry x="550" y="580" width="90" height="60" as="geometry" />
        </mxCell>
        <mxCell id="q4aeZ8HjHM6SwuqYir7_-70" style="edgeStyle=orthogonalEdgeStyle;rounded=0;orthogonalLoop=1;jettySize=auto;html=1;entryX=0.25;entryY=0;entryDx=0;entryDy=0;entryPerimeter=0;dashed=1;" parent="2b4e8129b02d487f-2" source="q4aeZ8HjHM6SwuqYir7_-69" target="q4aeZ8HjHM6SwuqYir7_-47" edge="1">
          <mxGeometry relative="1" as="geometry">
            <mxPoint x="1115.1599999999999" y="340" as="targetPoint" />
            <Array as="points">
              <mxPoint x="975" y="380" />
              <mxPoint x="1855" y="380" />
            </Array>
          </mxGeometry>
        </mxCell>
        <mxCell id="q4aeZ8HjHM6SwuqYir7_-78" value="No" style="edgeLabel;html=1;align=center;verticalAlign=middle;resizable=0;points=[];" parent="q4aeZ8HjHM6SwuqYir7_-70" vertex="1" connectable="0">
          <mxGeometry x="-0.0645" y="2" relative="1" as="geometry">
            <mxPoint as="offset" />
          </mxGeometry>
        </mxCell>
        <mxCell id="q4aeZ8HjHM6SwuqYir7_-79" value="Si" style="edgeStyle=orthogonalEdgeStyle;rounded=0;orthogonalLoop=1;jettySize=auto;html=1;dashed=1;entryX=0;entryY=0.5;entryDx=0;entryDy=0;entryPerimeter=0;" parent="2b4e8129b02d487f-2" source="q4aeZ8HjHM6SwuqYir7_-69" target="q4aeZ8HjHM6SwuqYir7_-80" edge="1">
          <mxGeometry relative="1" as="geometry">
            <mxPoint x="1100" y="469.9949999999999" as="targetPoint" />
          </mxGeometry>
        </mxCell>
        <mxCell id="q4aeZ8HjHM6SwuqYir7_-69" value="&lt;font style=&quot;font-size: 9px;&quot;&gt;Datos asociados a otra factura&lt;/font&gt;" style="strokeWidth=2;html=1;shape=mxgraph.flowchart.decision;whiteSpace=wrap;fillColor=#e1d5e7;strokeColor=#9673a6;" parent="2b4e8129b02d487f-2" vertex="1">
          <mxGeometry x="940.1100000000001" y="434.37" width="70" height="71.25" as="geometry" />
        </mxCell>
        <mxCell id="q4aeZ8HjHM6SwuqYir7_-76" value="" style="strokeWidth=2;html=1;shape=mxgraph.flowchart.start_2;whiteSpace=wrap;fillColor=#f8cecc;strokeColor=#b85450;" parent="2b4e8129b02d487f-2" vertex="1">
          <mxGeometry x="1990" y="653" width="40" height="40" as="geometry" />
        </mxCell>
        <mxCell id="q4aeZ8HjHM6SwuqYir7_-81" style="edgeStyle=orthogonalEdgeStyle;rounded=0;orthogonalLoop=1;jettySize=auto;html=1;dashed=1;entryX=0;entryY=0.5;entryDx=0;entryDy=0;entryPerimeter=0;" parent="2b4e8129b02d487f-2" source="q4aeZ8HjHM6SwuqYir7_-80" target="q4aeZ8HjHM6SwuqYir7_-82" edge="1">
          <mxGeometry relative="1" as="geometry">
            <mxPoint x="1250" y="469.99" as="targetPoint" />
          </mxGeometry>
        </mxCell>
        <mxCell id="q4aeZ8HjHM6SwuqYir7_-80" value="Datos relacionados en una factura diferente a la reportada" style="points=[[0.25,0,0],[0.5,0,0],[0.75,0,0],[1,0.25,0],[1,0.5,0],[1,0.75,0],[0.75,1,0],[0.5,1,0],[0.25,1,0],[0,0.75,0],[0,0.5,0],[0,0.25,0]];shape=mxgraph.bpmn.task;whiteSpace=wrap;rectStyle=rounded;size=10;html=1;taskMarker=abstract;fontSize=9;fillColor=#fff2cc;strokeColor=#d6b656;" parent="2b4e8129b02d487f-2" vertex="1">
          <mxGeometry x="1100" y="444.99" width="90" height="50" as="geometry" />
        </mxCell>
        <mxCell id="q4aeZ8HjHM6SwuqYir7_-84" style="edgeStyle=orthogonalEdgeStyle;rounded=0;orthogonalLoop=1;jettySize=auto;html=1;entryX=0;entryY=0.5;entryDx=0;entryDy=0;entryPerimeter=0;dashed=1;" parent="2b4e8129b02d487f-2" source="q4aeZ8HjHM6SwuqYir7_-82" target="q4aeZ8HjHM6SwuqYir7_-83" edge="1">
          <mxGeometry relative="1" as="geometry" />
        </mxCell>
        <mxCell id="q4aeZ8HjHM6SwuqYir7_-82" value="No se radica la factura en el sistema en EFAC" style="points=[[0.25,0,0],[0.5,0,0],[0.75,0,0],[1,0.25,0],[1,0.5,0],[1,0.75,0],[0.75,1,0],[0.5,1,0],[0.25,1,0],[0,0.75,0],[0,0.5,0],[0,0.25,0]];shape=mxgraph.bpmn.task;whiteSpace=wrap;rectStyle=rounded;size=10;html=1;taskMarker=abstract;fontSize=9;fillColor=#fff2cc;strokeColor=#d6b656;" parent="2b4e8129b02d487f-2" vertex="1">
          <mxGeometry x="1240" y="444.99" width="90" height="50" as="geometry" />
        </mxCell>
        <mxCell id="q4aeZ8HjHM6SwuqYir7_-86" style="edgeStyle=orthogonalEdgeStyle;rounded=0;orthogonalLoop=1;jettySize=auto;html=1;dashed=1;" parent="2b4e8129b02d487f-2" source="q4aeZ8HjHM6SwuqYir7_-83" target="q4aeZ8HjHM6SwuqYir7_-85" edge="1">
          <mxGeometry relative="1" as="geometry" />
        </mxCell>
        <mxCell id="96rb111MpXqOaE1i3Asx-185" style="edgeStyle=orthogonalEdgeStyle;rounded=0;orthogonalLoop=1;jettySize=auto;html=1;entryX=0;entryY=0.5;entryDx=0;entryDy=0;entryPerimeter=0;dashed=1;" parent="2b4e8129b02d487f-2" source="q4aeZ8HjHM6SwuqYir7_-83" target="96rb111MpXqOaE1i3Asx-184" edge="1">
          <mxGeometry relative="1" as="geometry" />
        </mxCell>
        <mxCell id="q4aeZ8HjHM6SwuqYir7_-83" value="Se carga el error&amp;nbsp; en el módulo ERRE y muestra mensaje en pantalla" style="points=[[0.25,0,0],[0.5,0,0],[0.75,0,0],[1,0.25,0],[1,0.5,0],[1,0.75,0],[0.75,1,0],[0.5,1,0],[0.25,1,0],[0,0.75,0],[0,0.5,0],[0,0.25,0]];shape=mxgraph.bpmn.task;whiteSpace=wrap;rectStyle=rounded;size=10;html=1;taskMarker=abstract;fontSize=9;fillColor=#fff2cc;strokeColor=#d6b656;" parent="2b4e8129b02d487f-2" vertex="1">
          <mxGeometry x="1380" y="445" width="90" height="50" as="geometry" />
        </mxCell>
        <mxCell id="q4aeZ8HjHM6SwuqYir7_-85" value="&lt;div style=&quot;text-align: justify; font-size: 9px;&quot;&gt;&lt;b style=&quot;background-color: initial;&quot;&gt;Mensaje:&lt;/b&gt;&lt;span style=&quot;background-color: initial;&quot;&gt;&lt;font style=&quot;font-size: 9px;&quot;&gt; &quot;El ID usuario, código&amp;nbsp;CUPS, el prestador y fecha de prestación se encuentra relacionado en otra factura&lt;/font&gt;&lt;/span&gt;&lt;/div&gt;" style="text;html=1;align=center;verticalAlign=middle;whiteSpace=wrap;rounded=0;dashed=1;fillColor=#f5f5f5;fontColor=#333333;strokeColor=#666666;" parent="2b4e8129b02d487f-2" vertex="1">
          <mxGeometry x="1355" y="520" width="140" height="60" as="geometry" />
        </mxCell>
        <mxCell id="q4aeZ8HjHM6SwuqYir7_-95" value="&lt;font size=&quot;1&quot;&gt;Evento y Ámbito&amp;nbsp;&lt;br&gt;Ambulatorio&lt;/font&gt;" style="strokeWidth=2;html=1;shape=mxgraph.flowchart.decision;whiteSpace=wrap;fillColor=#e1d5e7;strokeColor=#9673a6;" parent="2b4e8129b02d487f-2" vertex="1">
          <mxGeometry x="940.1100000000001" y="945.38" width="70" height="71.25" as="geometry" />
        </mxCell>
        <mxCell id="96rb111MpXqOaE1i3Asx-182" style="edgeStyle=orthogonalEdgeStyle;rounded=0;orthogonalLoop=1;jettySize=auto;html=1;dashed=1;entryX=0;entryY=0.5;entryDx=0;entryDy=0;entryPerimeter=0;" parent="2b4e8129b02d487f-2" source="q4aeZ8HjHM6SwuqYir7_-102" target="96rb111MpXqOaE1i3Asx-183" edge="1">
          <mxGeometry relative="1" as="geometry">
            <mxPoint x="1670" y="1136" as="targetPoint" />
          </mxGeometry>
        </mxCell>
        <mxCell id="FH4czwfDK9NghrXHaHDE-141" style="edgeStyle=orthogonalEdgeStyle;rounded=0;orthogonalLoop=1;jettySize=auto;html=1;dashed=1;" parent="2b4e8129b02d487f-2" source="q4aeZ8HjHM6SwuqYir7_-102" target="q4aeZ8HjHM6SwuqYir7_-103" edge="1">
          <mxGeometry relative="1" as="geometry" />
        </mxCell>
        <mxCell id="q4aeZ8HjHM6SwuqYir7_-102" value="Cargar el error en el módulo ERRE y mostrar mensaje en pantalla" style="points=[[0.25,0,0],[0.5,0,0],[0.75,0,0],[1,0.25,0],[1,0.5,0],[1,0.75,0],[0.75,1,0],[0.5,1,0],[0.25,1,0],[0,0.75,0],[0,0.5,0],[0,0.25,0]];shape=mxgraph.bpmn.task;whiteSpace=wrap;rectStyle=rounded;size=10;html=1;taskMarker=abstract;fontSize=9;fillColor=#fff2cc;strokeColor=#d6b656;" parent="2b4e8129b02d487f-2" vertex="1">
          <mxGeometry x="1525" y="956.01" width="100" height="50" as="geometry" />
        </mxCell>
        <mxCell id="q4aeZ8HjHM6SwuqYir7_-103" value="&lt;div style=&quot;text-align: justify;&quot;&gt;&lt;b style=&quot;font-size: 9px; background-color: initial;&quot;&gt;Mensaje:&lt;/b&gt;&lt;span style=&quot;background-color: initial;&quot;&gt;&lt;font style=&quot;&quot;&gt;&lt;font size=&quot;1&quot;&gt; &quot;En los registros de mutualser la autorización relacionada [###] tiene asociado un servicio diferente al código&amp;nbsp;de los servicios reportados en RIPS&quot;&lt;/font&gt;&lt;/font&gt;&lt;/span&gt;&lt;/div&gt;" style="text;html=1;strokeColor=#666666;fillColor=#f5f5f5;align=center;verticalAlign=middle;whiteSpace=wrap;rounded=0;dashed=1;fontColor=#333333;" parent="2b4e8129b02d487f-2" vertex="1">
          <mxGeometry x="1495.05" y="1045" width="160" height="70" as="geometry" />
        </mxCell>
        <mxCell id="FH4czwfDK9NghrXHaHDE-137" value="No" style="edgeStyle=orthogonalEdgeStyle;rounded=0;orthogonalLoop=1;jettySize=auto;html=1;entryX=0;entryY=0.5;entryDx=0;entryDy=0;entryPerimeter=0;dashed=1;" parent="2b4e8129b02d487f-2" source="q4aeZ8HjHM6SwuqYir7_-109" target="q4aeZ8HjHM6SwuqYir7_-112" edge="1">
          <mxGeometry relative="1" as="geometry">
            <mxPoint x="1387.5" y="980.6199999999999" as="targetPoint" />
          </mxGeometry>
        </mxCell>
        <mxCell id="FH4czwfDK9NghrXHaHDE-138" style="edgeStyle=orthogonalEdgeStyle;rounded=0;orthogonalLoop=1;jettySize=auto;html=1;dashed=1;entryX=0.25;entryY=1;entryDx=0;entryDy=0;entryPerimeter=0;" parent="2b4e8129b02d487f-2" source="q4aeZ8HjHM6SwuqYir7_-109" target="q4aeZ8HjHM6SwuqYir7_-47" edge="1">
          <mxGeometry relative="1" as="geometry">
            <mxPoint x="1840" y="698" as="targetPoint" />
            <Array as="points">
              <mxPoint x="1275" y="925" />
              <mxPoint x="1855" y="925" />
            </Array>
          </mxGeometry>
        </mxCell>
        <mxCell id="FH4czwfDK9NghrXHaHDE-139" value="Si" style="edgeLabel;html=1;align=center;verticalAlign=middle;resizable=0;points=[];" parent="FH4czwfDK9NghrXHaHDE-138" vertex="1" connectable="0">
          <mxGeometry x="-0.1357" y="1" relative="1" as="geometry">
            <mxPoint as="offset" />
          </mxGeometry>
        </mxCell>
        <mxCell id="q4aeZ8HjHM6SwuqYir7_-109" value="&lt;font size=&quot;1&quot;&gt;Códigos coinciden con el AS&lt;/font&gt;" style="strokeWidth=2;html=1;shape=mxgraph.flowchart.decision;whiteSpace=wrap;fillColor=#e1d5e7;strokeColor=#9673a6;" parent="2b4e8129b02d487f-2" vertex="1">
          <mxGeometry x="1240" y="945" width="70" height="71.25" as="geometry" />
        </mxCell>
        <mxCell id="q4aeZ8HjHM6SwuqYir7_-114" style="edgeStyle=orthogonalEdgeStyle;rounded=0;orthogonalLoop=1;jettySize=auto;html=1;entryX=0;entryY=0.5;entryDx=0;entryDy=0;entryPerimeter=0;dashed=1;" parent="2b4e8129b02d487f-2" source="q4aeZ8HjHM6SwuqYir7_-112" target="q4aeZ8HjHM6SwuqYir7_-102" edge="1">
          <mxGeometry relative="1" as="geometry" />
        </mxCell>
        <mxCell id="q4aeZ8HjHM6SwuqYir7_-112" value="No se radica la factura en el sistema" style="points=[[0.25,0,0],[0.5,0,0],[0.75,0,0],[1,0.25,0],[1,0.5,0],[1,0.75,0],[0.75,1,0],[0.5,1,0],[0.25,1,0],[0,0.75,0],[0,0.5,0],[0,0.25,0]];shape=mxgraph.bpmn.task;whiteSpace=wrap;rectStyle=rounded;size=10;html=1;taskMarker=abstract;fontSize=9;fillColor=#fff2cc;strokeColor=#d6b656;" parent="2b4e8129b02d487f-2" vertex="1">
          <mxGeometry x="1390" y="956.01" width="90" height="50" as="geometry" />
        </mxCell>
        <UserObject label="&lt;font style=&quot;font-size: 9px;&quot;&gt;Consultar la fecha de prestación registrada en los RIPS&lt;/font&gt;" link="https://app.diagrams.net/?client=1#Hkevinjporto%2FDiagramas-de-procesos%2Fmain%2FCapturar%20fecha%20de%20prestaci%C3%B3n%20efectiva.drawio" id="96rb111MpXqOaE1i3Asx-1">
          <mxCell style="points=[[0.25,0,0],[0.5,0,0],[0.75,0,0],[1,0.25,0],[1,0.5,0],[1,0.75,0],[0.75,1,0],[0.5,1,0],[0.25,1,0],[0,0.75,0],[0,0.5,0],[0,0.25,0]];shape=mxgraph.bpmn.task;whiteSpace=wrap;rectStyle=rounded;size=10;html=1;bpmnShapeType=call;isLoopSub=1;fillColor=#d5e8d4;strokeColor=#82b366;" parent="2b4e8129b02d487f-2" vertex="1">
            <mxGeometry x="1100" y="140" width="100" height="60" as="geometry" />
          </mxCell>
        </UserObject>
        <mxCell id="96rb111MpXqOaE1i3Asx-76" value="Si" style="edgeStyle=orthogonalEdgeStyle;rounded=0;orthogonalLoop=1;jettySize=auto;html=1;entryX=0;entryY=0.5;entryDx=0;entryDy=0;entryPerimeter=0;dashed=1;" parent="2b4e8129b02d487f-2" source="96rb111MpXqOaE1i3Asx-74" target="96rb111MpXqOaE1i3Asx-79" edge="1">
          <mxGeometry relative="1" as="geometry">
            <mxPoint x="1160" y="1169.6350000000002" as="targetPoint" />
          </mxGeometry>
        </mxCell>
        <mxCell id="96rb111MpXqOaE1i3Asx-74" value="&lt;font style=&quot;font-size: 9px;&quot;&gt;Contrato EVENTO&lt;/font&gt;" style="strokeWidth=2;html=1;shape=mxgraph.flowchart.decision;whiteSpace=wrap;fillColor=#e1d5e7;strokeColor=#9673a6;" parent="2b4e8129b02d487f-2" vertex="1">
          <mxGeometry x="980.0000000000001" y="1134.0100000000002" width="70" height="71.25" as="geometry" />
        </mxCell>
        <mxCell id="96rb111MpXqOaE1i3Asx-88" style="edgeStyle=orthogonalEdgeStyle;rounded=0;orthogonalLoop=1;jettySize=auto;html=1;entryX=0;entryY=0.5;entryDx=0;entryDy=0;entryPerimeter=0;dashed=1;" parent="2b4e8129b02d487f-2" source="96rb111MpXqOaE1i3Asx-78" target="96rb111MpXqOaE1i3Asx-87" edge="1">
          <mxGeometry relative="1" as="geometry" />
        </mxCell>
        <mxCell id="96rb111MpXqOaE1i3Asx-78" value="No se radica la factura en el sistema" style="points=[[0.25,0,0],[0.5,0,0],[0.75,0,0],[1,0.25,0],[1,0.5,0],[1,0.75,0],[0.75,1,0],[0.5,1,0],[0.25,1,0],[0,0.75,0],[0,0.5,0],[0,0.25,0]];shape=mxgraph.bpmn.task;whiteSpace=wrap;rectStyle=rounded;size=10;html=1;taskMarker=abstract;fontSize=9;fillColor=#fff2cc;strokeColor=#d6b656;" parent="2b4e8129b02d487f-2" vertex="1">
          <mxGeometry x="1464.9999999999998" y="1214" width="140" height="50" as="geometry" />
        </mxCell>
        <mxCell id="96rb111MpXqOaE1i3Asx-80" style="edgeStyle=orthogonalEdgeStyle;rounded=0;orthogonalLoop=1;jettySize=auto;html=1;entryX=0;entryY=0.5;entryDx=0;entryDy=0;entryPerimeter=0;dashed=1;" parent="2b4e8129b02d487f-2" source="96rb111MpXqOaE1i3Asx-79" target="96rb111MpXqOaE1i3Asx-81" edge="1">
          <mxGeometry relative="1" as="geometry">
            <mxPoint x="1320" y="1169.63" as="targetPoint" />
          </mxGeometry>
        </mxCell>
        <mxCell id="96rb111MpXqOaE1i3Asx-79" value="Validar los valores registrados en los RIPS coincidan con las tarifas en la base de contratos" style="points=[[0.25,0,0],[0.5,0,0],[0.75,0,0],[1,0.25,0],[1,0.5,0],[1,0.75,0],[0.75,1,0],[0.5,1,0],[0.25,1,0],[0,0.75,0],[0,0.5,0],[0,0.25,0]];shape=mxgraph.bpmn.task;whiteSpace=wrap;rectStyle=rounded;size=10;html=1;taskMarker=abstract;fontSize=9;fillColor=#fff2cc;strokeColor=#d6b656;" parent="2b4e8129b02d487f-2" vertex="1">
          <mxGeometry x="1140" y="1144.6399999999999" width="150" height="50" as="geometry" />
        </mxCell>
        <mxCell id="96rb111MpXqOaE1i3Asx-82" style="edgeStyle=orthogonalEdgeStyle;rounded=0;orthogonalLoop=1;jettySize=auto;html=1;dashed=1;entryX=0.5;entryY=1;entryDx=0;entryDy=0;entryPerimeter=0;exitX=1;exitY=0.5;exitDx=0;exitDy=0;exitPerimeter=0;" parent="2b4e8129b02d487f-2" source="96rb111MpXqOaE1i3Asx-81" target="q4aeZ8HjHM6SwuqYir7_-47" edge="1">
          <mxGeometry relative="1" as="geometry">
            <mxPoint x="1916" y="724" as="targetPoint" />
            <Array as="points">
              <mxPoint x="1890" y="1170" />
            </Array>
          </mxGeometry>
        </mxCell>
        <mxCell id="96rb111MpXqOaE1i3Asx-83" value="Si" style="edgeLabel;html=1;align=center;verticalAlign=middle;resizable=0;points=[];" parent="96rb111MpXqOaE1i3Asx-82" vertex="1" connectable="0">
          <mxGeometry x="-0.1159" y="1" relative="1" as="geometry">
            <mxPoint x="-152" y="1" as="offset" />
          </mxGeometry>
        </mxCell>
        <mxCell id="96rb111MpXqOaE1i3Asx-84" style="edgeStyle=orthogonalEdgeStyle;rounded=0;orthogonalLoop=1;jettySize=auto;html=1;entryX=0;entryY=0.5;entryDx=0;entryDy=0;entryPerimeter=0;dashed=1;" parent="2b4e8129b02d487f-2" source="96rb111MpXqOaE1i3Asx-81" target="96rb111MpXqOaE1i3Asx-78" edge="1">
          <mxGeometry relative="1" as="geometry">
            <mxPoint x="1510" y="1299.63" as="targetPoint" />
            <Array as="points">
              <mxPoint x="1365" y="1239" />
            </Array>
          </mxGeometry>
        </mxCell>
        <mxCell id="96rb111MpXqOaE1i3Asx-86" value="No" style="edgeLabel;html=1;align=center;verticalAlign=middle;resizable=0;points=[];" parent="96rb111MpXqOaE1i3Asx-84" vertex="1" connectable="0">
          <mxGeometry x="-0.3881" y="2" relative="1" as="geometry">
            <mxPoint x="-7" y="-13" as="offset" />
          </mxGeometry>
        </mxCell>
        <mxCell id="96rb111MpXqOaE1i3Asx-81" value="&lt;font style=&quot;font-size: 9px;&quot;&gt;Valor coincide con base del contrato&lt;/font&gt;" style="strokeWidth=2;html=1;shape=mxgraph.flowchart.decision;whiteSpace=wrap;fillColor=#e1d5e7;strokeColor=#9673a6;" parent="2b4e8129b02d487f-2" vertex="1">
          <mxGeometry x="1330" y="1134" width="70" height="71.25" as="geometry" />
        </mxCell>
        <mxCell id="96rb111MpXqOaE1i3Asx-90" style="edgeStyle=orthogonalEdgeStyle;rounded=0;orthogonalLoop=1;jettySize=auto;html=1;dashed=1;" parent="2b4e8129b02d487f-2" source="96rb111MpXqOaE1i3Asx-87" edge="1">
          <mxGeometry relative="1" as="geometry">
            <mxPoint x="1690" y="1339.63" as="targetPoint" />
          </mxGeometry>
        </mxCell>
        <mxCell id="96rb111MpXqOaE1i3Asx-181" style="edgeStyle=orthogonalEdgeStyle;rounded=0;orthogonalLoop=1;jettySize=auto;html=1;entryX=0;entryY=0.5;entryDx=0;entryDy=0;entryPerimeter=0;dashed=1;" parent="2b4e8129b02d487f-2" source="96rb111MpXqOaE1i3Asx-87" target="96rb111MpXqOaE1i3Asx-180" edge="1">
          <mxGeometry relative="1" as="geometry" />
        </mxCell>
        <mxCell id="96rb111MpXqOaE1i3Asx-87" value="Cargar el error en el módulo ERRE y mostrar mensaje en pantalla" style="points=[[0.25,0,0],[0.5,0,0],[0.75,0,0],[1,0.25,0],[1,0.5,0],[1,0.75,0],[0.75,1,0],[0.5,1,0],[0.25,1,0],[0,0.75,0],[0,0.5,0],[0,0.25,0]];shape=mxgraph.bpmn.task;whiteSpace=wrap;rectStyle=rounded;size=10;html=1;taskMarker=abstract;fontSize=9;fillColor=#fff2cc;strokeColor=#d6b656;" parent="2b4e8129b02d487f-2" vertex="1">
          <mxGeometry x="1640" y="1214" width="100" height="50" as="geometry" />
        </mxCell>
        <mxCell id="96rb111MpXqOaE1i3Asx-89" value="&lt;div style=&quot;text-align: justify;&quot;&gt;&lt;b style=&quot;font-size: 9px; background-color: initial;&quot;&gt;Mensaje:&lt;/b&gt;&lt;span style=&quot;background-color: initial;&quot;&gt;&lt;font style=&quot;&quot;&gt;&lt;font size=&quot;1&quot;&gt; &quot;El valor reportado en RIPS no corresponde con el registrado en el contrato&quot;&lt;/font&gt;&lt;/font&gt;&lt;/span&gt;&lt;/div&gt;" style="text;html=1;strokeColor=#666666;fillColor=#f5f5f5;align=center;verticalAlign=middle;whiteSpace=wrap;rounded=0;dashed=1;fontColor=#333333;" parent="2b4e8129b02d487f-2" vertex="1">
          <mxGeometry x="1610" y="1284" width="160" height="56" as="geometry" />
        </mxCell>
        <mxCell id="96rb111MpXqOaE1i3Asx-180" value="" style="strokeWidth=2;html=1;shape=mxgraph.flowchart.start_2;whiteSpace=wrap;fillColor=#f8cecc;strokeColor=#b85450;" parent="2b4e8129b02d487f-2" vertex="1">
          <mxGeometry x="1770" y="1219" width="40" height="40" as="geometry" />
        </mxCell>
        <mxCell id="96rb111MpXqOaE1i3Asx-183" value="" style="strokeWidth=2;html=1;shape=mxgraph.flowchart.start_2;whiteSpace=wrap;fillColor=#f8cecc;strokeColor=#b85450;" parent="2b4e8129b02d487f-2" vertex="1">
          <mxGeometry x="1690" y="960.63" width="40" height="40" as="geometry" />
        </mxCell>
        <mxCell id="96rb111MpXqOaE1i3Asx-184" value="" style="strokeWidth=2;html=1;shape=mxgraph.flowchart.start_2;whiteSpace=wrap;fillColor=#f8cecc;strokeColor=#b85450;" parent="2b4e8129b02d487f-2" vertex="1">
          <mxGeometry x="1515" y="450" width="40" height="40" as="geometry" />
        </mxCell>
        <mxCell id="96rb111MpXqOaE1i3Asx-188" value="" style="strokeWidth=2;html=1;shape=mxgraph.flowchart.start_2;whiteSpace=wrap;fillColor=#f8cecc;strokeColor=#b85450;" parent="2b4e8129b02d487f-2" vertex="1">
          <mxGeometry x="1660" y="225" width="40" height="40" as="geometry" />
        </mxCell>
        <mxCell id="FH4czwfDK9NghrXHaHDE-144" style="edgeStyle=orthogonalEdgeStyle;rounded=0;orthogonalLoop=1;jettySize=auto;html=1;dashed=1;entryX=0;entryY=0.5;entryDx=0;entryDy=0;entryPerimeter=0;" parent="2b4e8129b02d487f-2" source="0h3Z5OLf3pgDf_X1rs7T-3" target="FH4czwfDK9NghrXHaHDE-145" edge="1">
          <mxGeometry relative="1" as="geometry">
            <mxPoint x="980" y="1530" as="targetPoint" />
          </mxGeometry>
        </mxCell>
        <mxCell id="0h3Z5OLf3pgDf_X1rs7T-3" value="Validar el valor facturado en los archivos RIPS (AC, AP, AM, AU y AT)" style="points=[[0.25,0,0],[0.5,0,0],[0.75,0,0],[1,0.25,0],[1,0.5,0],[1,0.75,0],[0.75,1,0],[0.5,1,0],[0.25,1,0],[0,0.75,0],[0,0.5,0],[0,0.25,0]];shape=mxgraph.bpmn.task;whiteSpace=wrap;rectStyle=rounded;size=10;html=1;taskMarker=abstract;fontSize=9;fillColor=#fff2cc;strokeColor=#d6b656;" parent="2b4e8129b02d487f-2" vertex="1">
          <mxGeometry x="800" y="1420" width="119.89" height="60" as="geometry" />
        </mxCell>
        <mxCell id="FH4czwfDK9NghrXHaHDE-16" style="edgeStyle=orthogonalEdgeStyle;rounded=0;orthogonalLoop=1;jettySize=auto;html=1;dashed=1;" parent="2b4e8129b02d487f-2" source="FH4czwfDK9NghrXHaHDE-1" target="FH4czwfDK9NghrXHaHDE-6" edge="1">
          <mxGeometry relative="1" as="geometry" />
        </mxCell>
        <mxCell id="FH4czwfDK9NghrXHaHDE-1" value="Verificar ID del usuario, códigos CUMS, principio activo, mismo mes y año de prestación" style="points=[[0.25,0,0],[0.5,0,0],[0.75,0,0],[1,0.25,0],[1,0.5,0],[1,0.75,0],[0.75,1,0],[0.5,1,0],[0.25,1,0],[0,0.75,0],[0,0.5,0],[0,0.25,0]];shape=mxgraph.bpmn.task;whiteSpace=wrap;rectStyle=rounded;size=10;html=1;taskMarker=abstract;fontSize=9;fillColor=#fff2cc;strokeColor=#d6b656;" parent="2b4e8129b02d487f-2" vertex="1">
          <mxGeometry x="790.11" y="703.48" width="119.89" height="60" as="geometry" />
        </mxCell>
        <mxCell id="FH4czwfDK9NghrXHaHDE-142" style="edgeStyle=orthogonalEdgeStyle;rounded=0;orthogonalLoop=1;jettySize=auto;html=1;entryX=0;entryY=0.5;entryDx=0;entryDy=0;entryPerimeter=0;dashed=1;" parent="2b4e8129b02d487f-2" source="FH4czwfDK9NghrXHaHDE-6" target="q4aeZ8HjHM6SwuqYir7_-47" edge="1">
          <mxGeometry relative="1" as="geometry">
            <Array as="points">
              <mxPoint x="975" y="673" />
            </Array>
          </mxGeometry>
        </mxCell>
        <mxCell id="FH4czwfDK9NghrXHaHDE-143" value="No" style="edgeLabel;html=1;align=center;verticalAlign=middle;resizable=0;points=[];" parent="FH4czwfDK9NghrXHaHDE-142" vertex="1" connectable="0">
          <mxGeometry x="0.0799" y="2" relative="1" as="geometry">
            <mxPoint as="offset" />
          </mxGeometry>
        </mxCell>
        <mxCell id="FH4czwfDK9NghrXHaHDE-6" value="&lt;font style=&quot;font-size: 9px;&quot;&gt;Datos asociados a otra factura&lt;/font&gt;" style="strokeWidth=2;html=1;shape=mxgraph.flowchart.decision;whiteSpace=wrap;fillColor=#e1d5e7;strokeColor=#9673a6;" parent="2b4e8129b02d487f-2" vertex="1">
          <mxGeometry x="940.1100000000001" y="697.48" width="70" height="71.25" as="geometry" />
        </mxCell>
        <mxCell id="FH4czwfDK9NghrXHaHDE-8" value="Datos relacionados en una factura diferente a la reportada" style="points=[[0.25,0,0],[0.5,0,0],[0.75,0,0],[1,0.25,0],[1,0.5,0],[1,0.75,0],[0.75,1,0],[0.5,1,0],[0.25,1,0],[0,0.75,0],[0,0.5,0],[0,0.25,0]];shape=mxgraph.bpmn.task;whiteSpace=wrap;rectStyle=rounded;size=10;html=1;taskMarker=abstract;fontSize=9;fillColor=#fff2cc;strokeColor=#d6b656;" parent="2b4e8129b02d487f-2" vertex="1">
          <mxGeometry x="1100" y="708.1" width="90" height="50" as="geometry" />
        </mxCell>
        <mxCell id="FH4czwfDK9NghrXHaHDE-5" value="Si" style="edgeStyle=orthogonalEdgeStyle;rounded=0;orthogonalLoop=1;jettySize=auto;html=1;dashed=1;entryX=0;entryY=0.5;entryDx=0;entryDy=0;entryPerimeter=0;" parent="2b4e8129b02d487f-2" source="FH4czwfDK9NghrXHaHDE-6" target="FH4czwfDK9NghrXHaHDE-8" edge="1">
          <mxGeometry relative="1" as="geometry">
            <mxPoint x="1100" y="733.1049999999999" as="targetPoint" />
          </mxGeometry>
        </mxCell>
        <mxCell id="FH4czwfDK9NghrXHaHDE-10" value="No se radica la factura en el sistema en EFAC" style="points=[[0.25,0,0],[0.5,0,0],[0.75,0,0],[1,0.25,0],[1,0.5,0],[1,0.75,0],[0.75,1,0],[0.5,1,0],[0.25,1,0],[0,0.75,0],[0,0.5,0],[0,0.25,0]];shape=mxgraph.bpmn.task;whiteSpace=wrap;rectStyle=rounded;size=10;html=1;taskMarker=abstract;fontSize=9;fillColor=#fff2cc;strokeColor=#d6b656;" parent="2b4e8129b02d487f-2" vertex="1">
          <mxGeometry x="1240" y="708.1" width="90" height="50" as="geometry" />
        </mxCell>
        <mxCell id="FH4czwfDK9NghrXHaHDE-7" style="edgeStyle=orthogonalEdgeStyle;rounded=0;orthogonalLoop=1;jettySize=auto;html=1;dashed=1;entryX=0;entryY=0.5;entryDx=0;entryDy=0;entryPerimeter=0;" parent="2b4e8129b02d487f-2" source="FH4czwfDK9NghrXHaHDE-8" target="FH4czwfDK9NghrXHaHDE-10" edge="1">
          <mxGeometry relative="1" as="geometry">
            <mxPoint x="1250" y="733.1" as="targetPoint" />
          </mxGeometry>
        </mxCell>
        <mxCell id="FH4czwfDK9NghrXHaHDE-13" value="Se carga el error&amp;nbsp; en el módulo ERRE y muestra mensaje en pantalla" style="points=[[0.25,0,0],[0.5,0,0],[0.75,0,0],[1,0.25,0],[1,0.5,0],[1,0.75,0],[0.75,1,0],[0.5,1,0],[0.25,1,0],[0,0.75,0],[0,0.5,0],[0,0.25,0]];shape=mxgraph.bpmn.task;whiteSpace=wrap;rectStyle=rounded;size=10;html=1;taskMarker=abstract;fontSize=9;fillColor=#fff2cc;strokeColor=#d6b656;" parent="2b4e8129b02d487f-2" vertex="1">
          <mxGeometry x="1380" y="708.11" width="90" height="50" as="geometry" />
        </mxCell>
        <mxCell id="FH4czwfDK9NghrXHaHDE-9" style="edgeStyle=orthogonalEdgeStyle;rounded=0;orthogonalLoop=1;jettySize=auto;html=1;entryX=0;entryY=0.5;entryDx=0;entryDy=0;entryPerimeter=0;dashed=1;" parent="2b4e8129b02d487f-2" source="FH4czwfDK9NghrXHaHDE-10" target="FH4czwfDK9NghrXHaHDE-13" edge="1">
          <mxGeometry relative="1" as="geometry" />
        </mxCell>
        <mxCell id="FH4czwfDK9NghrXHaHDE-14" value="&lt;div style=&quot;text-align: justify; font-size: 9px;&quot;&gt;&lt;b style=&quot;background-color: initial;&quot;&gt;Mensaje:&lt;/b&gt;&lt;span style=&quot;background-color: initial;&quot;&gt;&lt;font style=&quot;font-size: 9px;&quot;&gt; &quot;El ID usuario, código CUMS, principio activo, mismo mes y año de prestación se encuentra relacionado en otra factura&lt;/font&gt;&lt;/span&gt;&lt;/div&gt;" style="text;html=1;align=center;verticalAlign=middle;whiteSpace=wrap;rounded=0;dashed=1;fillColor=#f5f5f5;fontColor=#333333;strokeColor=#666666;" parent="2b4e8129b02d487f-2" vertex="1">
          <mxGeometry x="1355" y="783.11" width="140" height="60" as="geometry" />
        </mxCell>
        <mxCell id="FH4czwfDK9NghrXHaHDE-11" style="edgeStyle=orthogonalEdgeStyle;rounded=0;orthogonalLoop=1;jettySize=auto;html=1;dashed=1;" parent="2b4e8129b02d487f-2" source="FH4czwfDK9NghrXHaHDE-13" target="FH4czwfDK9NghrXHaHDE-14" edge="1">
          <mxGeometry relative="1" as="geometry" />
        </mxCell>
        <mxCell id="FH4czwfDK9NghrXHaHDE-15" value="" style="strokeWidth=2;html=1;shape=mxgraph.flowchart.start_2;whiteSpace=wrap;fillColor=#f8cecc;strokeColor=#b85450;" parent="2b4e8129b02d487f-2" vertex="1">
          <mxGeometry x="1515" y="713.11" width="40" height="40" as="geometry" />
        </mxCell>
        <mxCell id="FH4czwfDK9NghrXHaHDE-12" style="edgeStyle=orthogonalEdgeStyle;rounded=0;orthogonalLoop=1;jettySize=auto;html=1;entryX=0;entryY=0.5;entryDx=0;entryDy=0;entryPerimeter=0;dashed=1;" parent="2b4e8129b02d487f-2" source="FH4czwfDK9NghrXHaHDE-13" target="FH4czwfDK9NghrXHaHDE-15" edge="1">
          <mxGeometry relative="1" as="geometry" />
        </mxCell>
        <mxCell id="FH4czwfDK9NghrXHaHDE-135" value="Si" style="edgeStyle=orthogonalEdgeStyle;rounded=0;orthogonalLoop=1;jettySize=auto;html=1;dashed=1;" parent="2b4e8129b02d487f-2" source="q4aeZ8HjHM6SwuqYir7_-95" target="FH4czwfDK9NghrXHaHDE-134" edge="1">
          <mxGeometry relative="1" as="geometry">
            <mxPoint x="1170" y="1041" as="targetPoint" />
            <Array as="points" />
            <mxPoint x="1039.9999999999998" y="1041" as="sourcePoint" />
          </mxGeometry>
        </mxCell>
        <mxCell id="FH4czwfDK9NghrXHaHDE-136" style="edgeStyle=orthogonalEdgeStyle;rounded=0;orthogonalLoop=1;jettySize=auto;html=1;entryX=0;entryY=0.5;entryDx=0;entryDy=0;entryPerimeter=0;dashed=1;" parent="2b4e8129b02d487f-2" source="FH4czwfDK9NghrXHaHDE-134" target="q4aeZ8HjHM6SwuqYir7_-109" edge="1">
          <mxGeometry relative="1" as="geometry" />
        </mxCell>
        <mxCell id="FH4czwfDK9NghrXHaHDE-134" value="Verificar que los códigos de tecnología (campo FCDC_PRODUCTO) corresponda a los códigos que se encuentran en el AS" style="points=[[0.25,0,0],[0.5,0,0],[0.75,0,0],[1,0.25,0],[1,0.5,0],[1,0.75,0],[0.75,1,0],[0.5,1,0],[0.25,1,0],[0,0.75,0],[0,0.5,0],[0,0.25,0]];shape=mxgraph.bpmn.task;whiteSpace=wrap;rectStyle=rounded;size=10;html=1;taskMarker=abstract;fontSize=9;fillColor=#fff2cc;strokeColor=#d6b656;" parent="2b4e8129b02d487f-2" vertex="1">
          <mxGeometry x="1078" y="951.01" width="119.89" height="60" as="geometry" />
        </mxCell>
        <mxCell id="FH4czwfDK9NghrXHaHDE-146" value="No" style="edgeStyle=orthogonalEdgeStyle;rounded=0;orthogonalLoop=1;jettySize=auto;html=1;dashed=1;entryX=0;entryY=0.5;entryDx=0;entryDy=0;entryPerimeter=0;" parent="2b4e8129b02d487f-2" source="FH4czwfDK9NghrXHaHDE-145" target="FH4czwfDK9NghrXHaHDE-149" edge="1">
          <mxGeometry relative="1" as="geometry">
            <mxPoint x="1120" y="1529.9950000000003" as="targetPoint" />
          </mxGeometry>
        </mxCell>
        <mxCell id="FH4czwfDK9NghrXHaHDE-147" style="edgeStyle=orthogonalEdgeStyle;rounded=0;orthogonalLoop=1;jettySize=auto;html=1;entryX=0.75;entryY=1;entryDx=0;entryDy=0;entryPerimeter=0;dashed=1;" parent="2b4e8129b02d487f-2" source="FH4czwfDK9NghrXHaHDE-145" target="q4aeZ8HjHM6SwuqYir7_-47" edge="1">
          <mxGeometry relative="1" as="geometry">
            <Array as="points">
              <mxPoint x="1015" y="1390" />
              <mxPoint x="1925" y="1390" />
            </Array>
          </mxGeometry>
        </mxCell>
        <mxCell id="FH4czwfDK9NghrXHaHDE-148" value="Si" style="edgeLabel;html=1;align=center;verticalAlign=middle;resizable=0;points=[];" parent="FH4czwfDK9NghrXHaHDE-147" vertex="1" connectable="0">
          <mxGeometry x="-0.5067" y="-2" relative="1" as="geometry">
            <mxPoint x="83" y="-2" as="offset" />
          </mxGeometry>
        </mxCell>
        <mxCell id="FH4czwfDK9NghrXHaHDE-145" value="&lt;font size=&quot;1&quot;&gt;Valor de RIPS coincide con el AS&lt;/font&gt;" style="strokeWidth=2;html=1;shape=mxgraph.flowchart.decision;whiteSpace=wrap;fillColor=#e1d5e7;strokeColor=#9673a6;" parent="2b4e8129b02d487f-2" vertex="1">
          <mxGeometry x="980" y="1414.3700000000003" width="70" height="71.25" as="geometry" />
        </mxCell>
        <mxCell id="FH4czwfDK9NghrXHaHDE-150" style="edgeStyle=orthogonalEdgeStyle;rounded=0;orthogonalLoop=1;jettySize=auto;html=1;dashed=1;" parent="2b4e8129b02d487f-2" source="FH4czwfDK9NghrXHaHDE-149" target="FH4czwfDK9NghrXHaHDE-151" edge="1">
          <mxGeometry relative="1" as="geometry">
            <mxPoint x="1300" y="1480" as="targetPoint" />
          </mxGeometry>
        </mxCell>
        <mxCell id="FH4czwfDK9NghrXHaHDE-149" value="No se permite la radicación de la factura" style="points=[[0.25,0,0],[0.5,0,0],[0.75,0,0],[1,0.25,0],[1,0.5,0],[1,0.75,0],[0.75,1,0],[0.5,1,0],[0.25,1,0],[0,0.75,0],[0,0.5,0],[0,0.25,0]];shape=mxgraph.bpmn.task;whiteSpace=wrap;rectStyle=rounded;size=10;html=1;taskMarker=abstract;fontSize=9;fillColor=#fff2cc;strokeColor=#d6b656;" parent="2b4e8129b02d487f-2" vertex="1">
          <mxGeometry x="1130" y="1425" width="110" height="50" as="geometry" />
        </mxCell>
        <mxCell id="FH4czwfDK9NghrXHaHDE-153" style="edgeStyle=orthogonalEdgeStyle;rounded=0;orthogonalLoop=1;jettySize=auto;html=1;entryX=0.5;entryY=0;entryDx=0;entryDy=0;dashed=1;" parent="2b4e8129b02d487f-2" source="FH4czwfDK9NghrXHaHDE-151" target="FH4czwfDK9NghrXHaHDE-152" edge="1">
          <mxGeometry relative="1" as="geometry" />
        </mxCell>
        <mxCell id="FH4czwfDK9NghrXHaHDE-155" style="edgeStyle=orthogonalEdgeStyle;rounded=0;orthogonalLoop=1;jettySize=auto;html=1;entryX=0;entryY=0.5;entryDx=0;entryDy=0;entryPerimeter=0;dashed=1;" parent="2b4e8129b02d487f-2" source="FH4czwfDK9NghrXHaHDE-151" target="FH4czwfDK9NghrXHaHDE-154" edge="1">
          <mxGeometry relative="1" as="geometry" />
        </mxCell>
        <mxCell id="FH4czwfDK9NghrXHaHDE-151" value="Se carga el ERROR en el módulo ERRE y muestra un mensaje en pantalla" style="points=[[0.25,0,0],[0.5,0,0],[0.75,0,0],[1,0.25,0],[1,0.5,0],[1,0.75,0],[0.75,1,0],[0.5,1,0],[0.25,1,0],[0,0.75,0],[0,0.5,0],[0,0.25,0]];shape=mxgraph.bpmn.task;whiteSpace=wrap;rectStyle=rounded;size=10;html=1;taskMarker=abstract;fontSize=9;fillColor=#fff2cc;strokeColor=#d6b656;" parent="2b4e8129b02d487f-2" vertex="1">
          <mxGeometry x="1320" y="1425" width="110" height="50" as="geometry" />
        </mxCell>
        <mxCell id="FH4czwfDK9NghrXHaHDE-152" value="&lt;div style=&quot;text-align: justify;&quot;&gt;&lt;b style=&quot;font-size: 9px; background-color: initial;&quot;&gt;Mensaje:&lt;/b&gt;&lt;span style=&quot;background-color: initial;&quot;&gt;&lt;font style=&quot;&quot;&gt;&lt;font size=&quot;1&quot;&gt; &quot;En los registros de mutualser el valor de la consulta reportado en RIPS no corresponde con el registrado en el número para facturar&quot;&lt;/font&gt;&lt;/font&gt;&lt;/span&gt;&lt;/div&gt;" style="text;html=1;strokeColor=#666666;fillColor=#f5f5f5;align=center;verticalAlign=middle;whiteSpace=wrap;rounded=0;dashed=1;fontColor=#333333;" parent="2b4e8129b02d487f-2" vertex="1">
          <mxGeometry x="1276.25" y="1510" width="197.5" height="60" as="geometry" />
        </mxCell>
        <mxCell id="FH4czwfDK9NghrXHaHDE-154" value="" style="strokeWidth=2;html=1;shape=mxgraph.flowchart.start_2;whiteSpace=wrap;fillColor=#f8cecc;strokeColor=#b85450;" parent="2b4e8129b02d487f-2" vertex="1">
          <mxGeometry x="1490" y="1430" width="40" height="40" as="geometry" />
        </mxCell>
      </root>
    </mxGraphModel>
  </diagram>
</mxfile>
